<svg width="119" height="79" viewBox="0 0 119 79" fill="none" xmlns="http://www.w3.org/2000/svg">
<g clip-path="url(#clip0_3_509)">
<path d="M72.5909 0.273364C72.7835 0.234113 72.9773 0.194861 73.1722 0.166C72.998 0.34032 72.7939 0.481163 72.5782 0.597761C72.5817 0.526186 72.5875 0.38419 72.5898 0.312614L72.5909 0.273364Z" fill="#257E48"/>
<path d="M70.8714 2.17472C71.5483 1.72679 72.1584 1.16458 72.9035 0.82518C72.6001 1.32621 72.1792 1.74065 71.8194 2.19896C70.5438 3.71358 69.5601 5.48334 69.0238 7.39393C68.4426 9.38072 68.393 11.4703 68.3953 13.5263C68.4829 16.4505 68.6121 19.3712 68.6813 22.2966C68.7113 25.8857 68.5683 29.4933 67.9213 33.0305C67.5522 34.9688 67.0667 36.8933 66.3171 38.7208C65.4233 40.9823 64.1281 43.1099 62.3786 44.8104C60.9324 46.2338 59.1967 47.3329 57.3664 48.1918C55.2605 49.1753 52.9897 49.7941 50.682 50.0469C48.4285 50.2628 46.085 50.1497 43.9733 49.2654C41.8755 48.3869 40.058 46.8907 38.7098 45.0644C38.26 44.4722 37.8263 43.8672 37.4388 43.2323C38.1908 43.8153 38.975 44.3763 39.8665 44.7284C39.8677 44.7746 39.8688 44.8681 39.87 44.9143C39.8919 44.8785 39.9357 44.8046 39.9576 44.7689C42.0566 45.7224 44.4139 46.0307 46.702 45.884C49.3546 45.7155 51.916 44.7296 54.0923 43.2184C57.4079 40.883 59.9936 37.5629 61.5897 33.8421C63.2424 30.0775 63.5642 25.9019 63.6553 21.8406C63.7672 19.0653 63.7233 16.2808 64.0278 13.5171C64.2388 11.6238 64.6967 9.73744 65.5778 8.03926C66.7726 5.64958 68.6997 3.69742 70.8714 2.17472Z" fill="#257E48"/>
<path d="M44.7529 16.2069C46.6985 15.7128 48.7906 15.9633 50.6082 16.7945C52.1121 17.4699 53.5248 18.4811 54.3875 19.9138C54.8349 20.5949 55.106 21.3672 55.4404 22.1049C54.4786 21.014 53.2746 20.1262 51.9045 19.624C50.1953 18.9729 48.2186 18.9395 46.5463 19.7222C45.3077 20.3202 44.2328 21.2472 43.4313 22.3647C42.3414 23.8955 41.8663 25.8626 42.2019 27.719C42.4429 29.4795 43.3782 31.1026 44.6711 32.3044C45.9016 33.4611 47.3478 34.4378 48.9959 34.873C48.1943 34.9769 47.3974 35.1639 46.5844 35.1328C45.8013 35.1178 45.024 34.9423 44.3112 34.6202C42.3818 33.7821 40.63 32.4291 39.5263 30.6166C38.3269 28.7406 37.9024 26.4549 38.0305 24.2533C38.0997 22.2042 38.8701 20.1505 40.3024 18.6659C41.4822 17.4064 43.0865 16.6006 44.7529 16.2069Z" fill="#257E48"/>
<path d="M62.879 5.46717C65.6688 3.02785 69.1194 1.5086 72.5897 0.312607C72.5874 0.384182 72.5816 0.526178 72.5781 0.597753C70.5853 1.64829 68.5889 2.78888 67.0101 4.42472C65.4912 5.93587 64.4717 7.89034 63.8731 9.93485C62.8144 13.4917 62.864 17.2401 62.8386 20.9147C62.7706 25.0811 62.4085 29.3525 60.7039 33.2083C58.9717 37.0537 56.1992 40.4593 52.6771 42.7959C51.1363 43.7991 49.434 44.5865 47.6211 44.9351C45.5463 45.3576 43.3793 45.0448 41.4106 44.3129C39.2159 43.4782 37.2392 42.124 35.5658 40.4859C33.9224 38.8489 32.5258 36.9048 31.7923 34.6848C31.0611 32.5214 31.0011 30.1467 31.5651 27.9383C32.3574 24.699 34.3918 21.9006 36.8321 19.6887C37.5414 19.0976 38.1999 18.435 38.9726 17.9259C38.7731 18.2884 38.5309 18.6255 38.3083 18.9729C37.3718 20.416 36.7548 22.0842 36.6384 23.8077C36.4331 26.1524 37.0685 28.5525 38.381 30.5035C39.7084 32.4706 41.556 34.1018 43.7114 35.1039C45.0193 35.6823 46.5047 35.9917 47.9175 35.6453C50.1029 35.1316 51.9044 33.5766 53.1614 31.7641C54.3228 30.1237 54.9513 28.1773 55.3354 26.2205C55.8152 23.7281 56.0885 21.1999 56.5855 18.7097C57.1368 15.9241 57.8703 13.1511 59.0939 10.579C60.0016 8.64534 61.269 6.87559 62.879 5.46717Z" fill="#062F81"/>
<path d="M70.9025 4.50322C71.6763 3.3407 72.6185 2.274 73.7084 1.40125C73.5631 2.02118 73.2448 2.57877 73.0257 3.17215C72.2034 5.16471 71.8274 7.32813 71.8816 9.48C71.9762 12.0475 72.5597 14.5595 73.0372 17.075C73.8306 20.9609 74.4396 24.9021 74.4788 28.8757C74.5019 31.0761 74.345 33.2787 73.9921 35.4514C73.6173 37.5756 73.0268 39.6928 71.945 41.5722C71.2865 42.7243 70.3962 43.731 69.3744 44.5726C70.5772 44.7042 71.7847 44.8035 72.9899 44.927C75.534 45.1868 78.1151 45.0021 80.6085 44.4433C82.2116 44.075 83.87 43.6121 85.1686 42.5535C85.548 42.2603 85.8236 41.862 86.1466 41.5099C86.2803 41.9913 86.0624 42.4773 85.9897 42.9518C85.6749 44.5022 85.0567 46.0607 83.87 47.1505C82.6429 48.2991 81.0571 48.9987 79.4494 49.4316C77.3874 50.0008 75.1846 50.0608 73.1006 49.5713C70.4861 48.9953 68.0066 47.8316 65.3159 47.6134C64.3345 47.5464 63.345 47.5845 62.3705 47.7161C61.1295 47.9447 59.9209 48.3268 58.6742 48.5242C59.0548 48.1998 59.538 48.0463 59.9786 47.8258C61.9011 46.9173 63.6437 45.5931 64.9365 43.8961C66.174 42.303 67.0067 40.442 67.6548 38.543C69.1783 33.9102 69.7492 29.0085 69.7469 24.146C69.688 22.2631 69.62 20.3802 69.4505 18.5042C69.2971 16.1157 69.0249 13.7318 69.0676 11.3352C69.0388 8.95011 69.5958 6.52002 70.9025 4.50322Z" fill="#062F81"/>
<path d="M41.8766 63.6508C42.3645 63.6497 42.8534 63.6116 43.3413 63.652C43.4612 63.7305 43.467 63.8967 43.5281 64.0191C44.1693 65.9632 44.8498 67.8945 45.476 69.8421C45.6686 69.8582 45.8635 69.8779 46.0573 69.8986C46.063 70.2253 46.0573 70.5521 46.0446 70.8799C45.0043 70.918 43.9594 70.9272 42.9203 70.8811C42.8719 70.5798 42.8638 70.2704 42.9111 69.9714C43.0322 69.7901 43.3101 69.8883 43.4935 69.8375C43.3989 69.6204 43.392 69.3422 43.2133 69.1771C42.5686 69.1598 41.9216 69.1679 41.2769 69.1852C41.1293 69.3745 41.142 69.6424 41.0532 69.864C41.2446 69.8698 41.4361 69.8779 41.6298 69.8883C41.631 70.2265 41.631 70.5648 41.6275 70.9042C40.7383 70.9019 39.8491 70.9157 38.96 70.8972C38.9611 70.5624 38.968 70.2288 38.9911 69.8963C39.1745 69.8825 39.359 69.8698 39.5447 69.8605C40.3508 67.8022 41.0728 65.7103 41.8766 63.6508ZM42.2503 65.7611C42.0231 66.5635 41.7832 67.3623 41.5179 68.1531C42.0104 68.1508 42.504 68.1439 42.9976 68.1508C42.722 67.3623 42.5225 66.5508 42.2503 65.7611Z" fill="#062F81"/>
<path d="M50.0661 64.1126C51.1213 63.4834 52.4222 63.5481 53.5882 63.7605C53.7612 64.4589 53.7185 65.1816 53.7969 65.8928C53.4037 65.9285 53.0104 65.9643 52.6229 66.0451C52.5237 65.663 52.4257 65.2809 52.3288 64.8988C51.8721 64.6748 51.1709 64.7025 50.9576 65.244C50.7719 65.491 50.9137 65.7762 51.0095 66.0255C51.8029 66.5196 52.842 66.582 53.4879 67.3139C54.038 67.8795 54.0587 68.7419 53.8258 69.4542C53.5663 70.0557 53.0831 70.5509 52.4568 70.761C51.3843 71.12 50.2079 71.0843 49.125 70.7899C48.9993 70.0984 48.9255 69.3976 48.8701 68.698C49.268 68.593 49.6751 68.5203 50.0857 68.4891C50.2633 68.9485 50.1906 69.6862 50.7765 69.834C51.1836 69.9298 51.6103 69.8525 51.9575 69.6193C51.9978 69.5477 52.0786 69.4046 52.1189 69.3341C52.1074 69.094 52.1547 68.8227 51.9771 68.6311C51.6934 68.3644 51.2966 68.2801 50.9472 68.1358C50.1872 67.8565 49.4583 67.3566 49.1319 66.5889C49.0062 66.1606 49.0316 65.7207 49.1354 65.2924C49.358 64.8422 49.6128 64.3701 50.0661 64.1126Z" fill="#062F81"/>
<path d="M57.3525 63.6658C57.838 63.6093 58.3293 63.6497 58.8172 63.6358C59.5472 65.6988 60.2196 67.7814 60.9231 69.8536C61.103 69.8663 61.2841 69.8802 61.4663 69.8975C61.4663 70.2323 61.4674 70.5682 61.4628 70.9053C60.4249 70.9019 59.3869 70.9157 58.349 70.8972C58.3386 70.5555 58.3397 70.215 58.3547 69.8744C58.5496 69.8675 58.7445 69.864 58.9417 69.8652C58.8552 69.6285 58.778 69.3896 58.6892 69.1564C58.0122 69.1852 57.3352 69.1691 56.6594 69.1725C56.6156 69.3988 56.5602 69.6227 56.4968 69.8456C56.6917 69.8606 56.8877 69.8779 57.085 69.8975C57.0838 70.2277 57.0827 70.559 57.0723 70.8903C56.19 70.9203 55.3066 70.9007 54.4232 70.9042C54.4186 70.5694 54.4209 70.2358 54.4278 69.9021C54.6135 69.886 54.798 69.8721 54.9848 69.8594C55.7552 67.8391 56.4968 65.8073 57.2499 63.7801C57.2752 63.7513 57.3271 63.6947 57.3525 63.6658ZM56.9477 68.1485C57.4367 68.152 57.9269 68.1462 58.4182 68.1543C58.1967 67.3427 57.8969 66.5531 57.7227 65.73C57.4321 66.5254 57.2383 67.352 56.9477 68.1485Z" fill="#062F81"/>
<path d="M0.10932 63.7374C1.26145 63.7374 2.41473 63.7409 3.56686 63.7363C3.95206 63.734 4.3165 63.8736 4.67978 63.9879C5.40981 64.3978 5.93686 65.1989 5.88496 66.0532C5.92302 66.9306 5.31293 67.7041 4.5806 68.1197C3.94053 68.3713 3.25086 68.4868 2.56466 68.4671C2.54505 68.9278 2.54044 69.3895 2.52891 69.8513C2.87259 69.8698 3.21627 69.8848 3.55994 69.9067C3.57032 70.2346 3.57032 70.5636 3.55418 70.8926C2.40781 70.9146 1.25914 70.9111 0.11278 70.8949C0.108167 70.5694 0.110474 70.245 0.111627 69.9206C0.300765 69.8917 0.489904 69.864 0.680196 69.8409C0.669816 68.1531 0.687115 66.4665 0.670969 64.7799C0.481831 64.7637 0.292693 64.7487 0.103554 64.7349C0.101247 64.4012 0.100094 64.0687 0.10932 63.7374ZM2.60387 64.6667C2.61079 65.5891 2.57504 66.5127 2.56927 67.4362C2.96946 67.4559 3.42962 67.4443 3.70295 67.1003C4.14235 66.4515 4.07662 65.4922 3.53342 64.9219C3.29123 64.6679 2.93025 64.6552 2.60387 64.6667Z" fill="#062F81"/>
<path d="M6.56544 63.7432C8.67595 63.7351 10.7876 63.742 12.8981 63.7397C12.8866 64.4936 12.9731 65.2405 13.0088 65.992C12.6017 66.0578 12.1877 66.0544 11.7771 66.0786C11.6745 65.6907 11.6353 65.2901 11.5419 64.8999C11.2778 64.7868 10.9906 64.781 10.7092 64.7856C10.6919 66.4734 10.6827 68.1612 10.6596 69.8502C10.9064 69.8548 11.1544 69.8629 11.4023 69.8721C11.4196 70.2138 11.4185 70.5578 11.4023 70.9007C10.2502 70.9122 9.09805 70.9007 7.94707 70.9042C7.94707 70.5671 7.92285 70.2277 7.97821 69.8952C8.23308 69.8502 8.49373 69.8548 8.75206 69.8502C8.7486 68.1624 8.74745 66.4746 8.75322 64.7868C8.5364 64.7856 8.31958 64.7856 8.10276 64.7845C8.04279 64.8214 7.92401 64.8953 7.86404 64.9323C7.7983 65.3167 7.71872 65.6988 7.65529 66.0844C7.25626 66.0625 6.85837 66.0544 6.46049 66.0255C6.38322 65.2613 6.54468 64.5051 6.56544 63.7432Z" fill="#062F81"/>
<path d="M18.8191 63.749C19.9216 63.7247 21.0253 63.7455 22.129 63.7363C22.6272 63.7166 23.13 63.7986 23.5914 63.9902C24.2326 64.295 24.7273 65.0465 24.514 65.7681C24.3479 66.3822 23.7989 66.7701 23.2638 67.0472C23.9938 67.1153 24.6212 67.6267 24.8819 68.3055C24.9038 68.6426 24.9096 68.9797 24.9038 69.3191C24.4794 70.4262 23.2327 70.8822 22.1313 70.9042C21.023 70.8972 19.9124 70.9226 18.8041 70.8915C18.7879 70.5728 18.7925 70.2542 18.7983 69.9368C19.0209 69.9125 19.2423 69.886 19.4649 69.864C19.488 68.167 19.4753 66.4711 19.4741 64.7753C19.2469 64.7603 19.0197 64.7395 18.7937 64.7198C18.796 64.3955 18.7983 64.0722 18.8191 63.749ZM21.3344 64.6598C21.3355 65.364 21.3205 66.0682 21.3401 66.7736C21.6688 66.7528 22.0356 66.7874 22.2985 66.5473C22.8267 66.171 22.8498 65.3248 22.3504 64.9138C22.0955 64.6125 21.6861 64.6564 21.3344 64.6598ZM21.3367 67.7283C21.3321 68.4256 21.3182 69.1252 21.3401 69.8225C21.4889 70.0545 21.783 69.9702 22.0114 69.9668C22.3873 69.9102 22.6849 69.6562 22.8879 69.3468C22.9755 69.0005 22.9847 68.6161 22.7679 68.3136C22.4911 67.7999 21.8557 67.741 21.3367 67.7283Z" fill="#062F81"/>
<path d="M25.7341 63.7501C26.8424 63.7305 27.9518 63.7305 29.0602 63.7467C29.0602 64.0734 29.059 64.4024 29.0532 64.7302C28.826 64.7464 28.5988 64.7614 28.3716 64.7695C28.3682 66.4654 28.3555 68.1601 28.3682 69.8548C28.5942 69.8583 28.8214 69.8629 29.0486 69.871C29.0613 70.2161 29.0625 70.5613 29.0486 70.9076C27.9392 70.8984 26.8286 70.9226 25.7191 70.8915C25.7133 70.5555 25.7179 70.2196 25.7202 69.8836C25.9474 69.8686 26.1758 69.8571 26.4041 69.849C26.4064 68.1589 26.4064 66.4711 26.403 64.7822C26.1746 64.7579 25.9474 64.7337 25.7202 64.706C25.7179 64.3862 25.7202 64.0676 25.7341 63.7501Z" fill="#062F81"/>
<path d="M29.924 64.781C29.9321 64.4324 29.9402 64.0837 29.9448 63.7363C30.872 63.7409 31.8004 63.7409 32.7277 63.7316C33.2766 65.237 33.8198 66.7482 34.2881 68.2801C34.822 66.7655 35.356 65.2509 35.8957 63.7386C36.7711 63.7432 37.6464 63.7282 38.5218 63.7467C38.5183 64.0849 38.5195 64.4243 38.5022 64.7637C38.3096 64.7753 38.117 64.7856 37.9244 64.7972C37.9405 66.4861 37.9209 68.1751 37.9428 69.8652C38.1297 69.8721 38.3165 69.8825 38.5045 69.8952C38.5172 70.23 38.5206 70.5671 38.5149 70.903C37.5196 70.9007 36.5243 70.9226 35.529 70.8903C35.5232 70.5613 35.529 70.2323 35.5521 69.9056C35.7654 69.8859 35.9799 69.8721 36.1956 69.8629C36.1968 68.6276 36.2025 67.3924 36.1898 66.1583C35.619 67.6002 35.1 69.0651 34.4622 70.4816C34.137 70.4955 33.8118 70.5082 33.4865 70.5209C32.8211 69.0755 32.3356 67.5586 31.8004 66.0636C31.7854 67.3254 31.6667 68.5849 31.7093 69.849C31.9677 69.864 32.2248 69.8848 32.4832 69.9079C32.4889 70.2334 32.4878 70.5601 32.467 70.8857C31.6021 70.9215 30.736 70.9099 29.871 70.8949C29.8549 70.5636 29.856 70.2323 29.8652 69.9021C30.0532 69.8871 30.2412 69.8756 30.4303 69.8698C30.4672 68.1774 30.4915 66.4838 30.5491 64.7926C30.3404 64.7868 30.1328 64.7833 29.924 64.781Z" fill="#062F81"/>
<path d="M62.0302 63.7397C63.0705 63.7363 64.1107 63.7386 65.1521 63.7397C65.1545 64.0641 65.1556 64.3885 65.1568 64.7141C64.9676 64.7383 64.7773 64.7603 64.5882 64.7799C64.5767 65.4529 64.5755 66.1283 64.5859 66.8025C64.7912 66.7401 65.0472 66.754 65.181 66.5566C65.678 65.9978 66.1117 65.3871 66.5545 64.7857C66.3677 64.7695 66.182 64.7545 65.9964 64.7372C65.9906 64.4081 65.9975 64.0803 66.0079 63.7536C66.9386 63.7236 67.8693 63.7467 68.8 63.7363C68.7896 64.0699 68.7781 64.4047 68.7585 64.7395C68.6097 64.7533 68.4609 64.7695 68.3133 64.7868C67.6905 65.4979 67.0412 66.1837 66.3827 66.8613C67.3791 67.6013 67.5337 68.9335 68.2868 69.8536C68.5105 69.8606 68.7342 69.8756 68.9591 69.8952C68.9614 70.2265 68.9614 70.5578 68.9488 70.8903C68.1541 70.9099 67.3584 70.9192 66.5649 70.8961C66.4161 70.7125 66.3227 70.4943 66.212 70.2889C65.8407 69.5038 65.64 68.6265 65.1245 67.9176C65.0126 67.7191 64.7658 67.7872 64.5813 67.7687C64.5594 68.4637 64.5732 69.1598 64.5605 69.8559C64.7508 69.8548 64.9422 69.8548 65.1337 69.8571C65.1498 70.2046 65.1556 70.5544 65.1579 70.9053C64.1153 70.9076 63.0716 70.9065 62.0291 70.9042C62.0291 70.5625 62.0314 70.2219 62.0406 69.8813C62.232 69.8686 62.4246 69.8571 62.6184 69.8479C62.5849 68.1635 62.6449 66.4792 62.6126 64.796C62.4189 64.773 62.2263 64.751 62.0348 64.7291C62.0314 64.3978 62.0302 64.0687 62.0302 63.7397Z" fill="#062F81"/>
<path d="M69.3467 63.7363C71.4469 63.7467 73.547 63.7351 75.6471 63.7409C75.7751 64.489 75.7786 65.252 75.7578 66.0105C75.3507 66.0544 74.9413 66.0567 74.5331 66.0786C74.4938 65.6815 74.412 65.2913 74.3554 64.8976C74.0706 64.7799 73.7615 64.7845 73.4605 64.7822C73.4524 66.4711 73.4617 68.1601 73.4559 69.8502C73.72 69.8571 73.9864 69.8721 74.2517 69.8929C74.2563 70.2254 74.2528 70.5601 74.2367 70.8938C73.0718 70.9123 71.907 70.9111 70.7422 70.8938C70.7491 70.5544 70.763 70.215 70.7814 69.8767C71.0248 69.8686 71.2681 69.8617 71.5138 69.8525C71.5091 68.1612 71.5172 66.4711 71.508 64.7799C71.2312 64.8214 70.816 64.6714 70.6707 64.9958C70.5496 65.3409 70.5266 65.7138 70.4354 66.0682C70.0237 66.0648 69.612 66.0625 69.2037 66.0128C69.2972 65.2567 69.2856 64.4947 69.3467 63.7363Z" fill="#062F81"/>
<path d="M76.5628 63.742C77.6803 63.7328 78.799 63.7432 79.9165 63.7397C79.9154 64.063 79.9119 64.3862 79.9004 64.7095C79.6686 64.7406 79.4368 64.7706 79.2061 64.803C79.1969 66.485 79.1911 68.1658 79.1519 69.8479C79.3918 69.8559 79.6374 69.849 79.8762 69.9044C79.9269 70.2346 79.8981 70.5717 79.8935 70.9065C78.7829 70.9019 77.6734 70.9065 76.5651 70.9053C76.5605 70.5601 76.5628 70.2161 76.5709 69.8721C76.8015 69.8629 77.0322 69.8548 77.264 69.8502C77.2409 68.1601 77.2675 66.47 77.249 64.781C77.0206 64.7602 76.7934 64.7395 76.5674 64.7187C76.5628 64.3931 76.5616 64.0676 76.5628 63.742Z" fill="#062F81"/>
<path d="M83.2495 63.7397C84.3324 63.7397 85.4154 63.734 86.4995 63.7409C86.4937 64.0768 86.4949 64.4139 86.4752 64.7499C86.2504 64.7591 86.0266 64.7649 85.804 64.7706C85.7602 66.4642 85.7833 68.1589 85.7694 69.8536C86.2065 69.8744 86.6448 69.8536 87.0842 69.8582C87.3748 69.4392 87.4532 68.922 87.6481 68.4579C88.0264 68.5595 88.4151 68.623 88.7945 68.7269C88.6146 69.445 88.4866 70.1757 88.3228 70.8972C86.6321 70.9111 84.9402 70.903 83.2495 70.9053C83.2507 70.5648 83.2518 70.2242 83.261 69.886C83.4479 69.8756 83.6359 69.8675 83.8262 69.8617C83.84 68.1658 83.8527 66.4688 83.8285 64.7729C83.637 64.7626 83.4479 64.751 83.2599 64.7383C83.2518 64.4047 83.2507 64.0711 83.2495 63.7397Z" fill="#062F81"/>
<path d="M89.137 63.7374C90.2153 63.7397 91.2936 63.7363 92.372 63.7397C92.3743 64.0653 92.3743 64.392 92.3754 64.7187C92.1321 64.7383 91.8887 64.7545 91.6477 64.7707C91.6488 65.8535 91.5866 66.9352 91.5819 68.0181C91.6004 68.6484 91.6984 69.3815 92.2935 69.7347C92.7641 69.879 93.3661 69.8513 93.6682 69.4046C93.9162 68.9913 93.9946 68.4914 93.9819 68.0158C93.9739 66.9341 93.9831 65.8524 93.975 64.7707C93.7063 64.7533 93.4376 64.7279 93.1712 64.7002C93.1689 64.3781 93.1689 64.0584 93.17 63.7374C94.1146 63.7374 95.0579 63.7397 96.0036 63.7374C96.0002 64.0572 95.9933 64.377 95.9783 64.6979C95.8145 64.7199 95.6519 64.7406 95.4916 64.7637C95.4466 66.0786 95.5573 67.4051 95.3509 68.7096C95.2217 69.5847 94.6877 70.4309 93.8608 70.7887C92.9417 71.1443 91.8772 71.0877 90.9822 70.6918C90.1519 70.32 89.7102 69.4149 89.6652 68.5399C89.5706 67.2827 89.6421 66.0174 89.6248 64.7579C89.4622 64.7383 89.2984 64.7175 89.1381 64.7002C89.1358 64.3781 89.1358 64.0584 89.137 63.7374Z" fill="#062F81"/>
<path d="M96.7302 63.7547C97.7936 63.7247 98.8592 63.7351 99.9237 63.749C99.9214 64.0757 99.9179 64.4047 99.8971 64.7325C99.693 64.7464 99.4889 64.7614 99.2871 64.7764C99.2709 65.4079 99.2778 66.0405 99.2755 66.672C99.994 66.6743 100.714 66.6962 101.433 66.6905C101.439 66.0521 101.454 65.4148 101.459 64.7776C101.234 64.7683 101.011 64.7545 100.79 64.7395C100.782 64.4047 100.779 64.0722 100.778 63.7397C101.846 63.742 102.915 63.7247 103.984 63.7501C103.984 64.0711 103.974 64.392 103.957 64.7129C103.77 64.7464 103.582 64.7776 103.397 64.8122C103.393 66.4931 103.327 68.1728 103.332 69.8536C103.538 69.8594 103.744 69.8686 103.953 69.8802C103.956 70.2219 103.929 70.5625 103.901 70.9042C102.826 70.9019 101.752 70.9157 100.678 70.8949C100.665 70.5636 100.663 70.2334 100.674 69.9044C100.936 69.8756 101.2 69.8559 101.466 69.8409C101.451 69.1575 101.434 68.4729 101.434 67.7895C100.71 67.7849 99.9848 67.7872 99.2605 67.7906C99.2594 68.4752 99.2432 69.161 99.2467 69.8467C99.4601 69.8548 99.6734 69.8652 99.8891 69.8756C99.9064 70.2161 99.9121 70.5567 99.9041 70.8984C98.8407 70.9146 97.7786 70.8949 96.7164 70.9134C96.7072 70.5636 96.7049 70.215 96.7302 69.8686C96.9263 69.8594 97.1258 69.8548 97.3253 69.8525C97.3149 68.1612 97.3288 66.47 97.3184 64.7787C97.1154 64.7637 96.9136 64.7441 96.7141 64.7233C96.7095 64.4001 96.721 64.0768 96.7302 63.7547Z" fill="#062F81"/>
<path d="M104.822 63.7386C105.899 63.7374 106.977 63.7386 108.055 63.7397C108.059 64.0653 108.059 64.392 108.059 64.7198C107.812 64.7395 107.565 64.7556 107.32 64.7695C107.299 65.8916 107.23 67.0137 107.254 68.137C107.287 68.6218 107.36 69.1506 107.693 69.5304C108.164 69.9552 109.063 69.9298 109.384 69.3307C109.596 68.9301 109.679 68.4671 109.667 68.0157C109.66 66.934 109.67 65.8535 109.661 64.7729C109.391 64.7533 109.123 64.7279 108.857 64.7014C108.856 64.3816 108.855 64.0618 108.856 63.7432C109.791 63.7305 110.725 63.7397 111.661 63.7374C111.658 64.0653 111.647 64.3931 111.623 64.721C111.473 64.7291 111.325 64.7395 111.179 64.751C111.123 66.0671 111.213 67.3935 111.027 68.7026C110.894 69.5754 110.372 70.4308 109.542 70.7887C108.677 71.1258 107.688 71.0842 106.824 70.7668C105.981 70.4585 105.434 69.6135 105.363 68.735C105.205 67.4131 105.358 66.0728 105.278 64.7441C105.112 64.7279 104.947 64.7129 104.784 64.6979C104.792 64.377 104.804 64.0572 104.822 63.7386Z" fill="#062F81"/>
<path d="M112.416 63.7524C113.46 63.7213 114.506 63.749 115.551 63.734C115.96 63.7143 116.364 63.8009 116.756 63.9175C117.741 64.1957 118.45 65.3352 118.074 66.3326C117.84 66.9121 117.372 67.3508 116.805 67.6025C117.574 68.1116 117.787 69.0882 118.24 69.8421C118.456 69.8559 118.673 69.8721 118.891 69.8917C118.901 70.2242 118.9 70.5578 118.885 70.8915C118.136 70.918 117.387 70.9007 116.638 70.9053C116.236 70.1134 115.913 69.2845 115.545 68.4775C115.442 68.2016 115.124 68.1959 114.885 68.1301C114.839 68.6969 114.885 69.2672 114.848 69.8352C115.04 69.8606 115.235 69.8883 115.43 69.9183C115.44 70.2415 115.44 70.5659 115.431 70.8903C114.434 70.9215 113.438 70.8995 112.443 70.9053C112.425 70.5659 112.425 70.2254 112.446 69.8871C112.629 69.8767 112.815 69.8698 113.002 69.8663C113.009 68.1658 113.017 66.4654 112.997 64.766C112.813 64.7637 112.629 64.7626 112.448 64.7626C112.431 64.4255 112.426 64.0884 112.416 63.7524ZM114.862 64.6794C114.862 65.5233 114.871 66.3695 114.854 67.2146C115.235 67.2388 115.646 67.1765 115.92 66.8844C116.497 66.1998 116.225 65.0212 115.397 64.6691C115.217 64.6725 115.039 64.6748 114.862 64.6794Z" fill="#062F81"/>
<path d="M13.8691 69.1621C14.1459 69.1448 14.4238 69.1448 14.7018 69.1633C15.1458 69.4115 15.3038 69.9033 15.2231 70.3882C15.0109 70.7657 14.6164 71.0797 14.1597 71.0127C13.8218 70.9942 13.5842 70.7299 13.3582 70.5094C13.1425 70.0026 13.3847 69.408 13.8691 69.1621Z" fill="#062F81"/>
<path d="M10.0264 74.5395C10.9951 75.4838 11.995 76.3993 12.9096 77.3967C12.8934 76.502 12.9038 75.6085 12.9038 74.715C13.1045 74.715 13.304 74.715 13.5047 74.7161C13.5081 76.0922 13.5081 77.4671 13.5058 78.8421C12.5682 77.877 11.5429 76.9973 10.6468 75.9929C10.6595 76.8818 10.6434 77.7719 10.6561 78.6608C10.4496 78.662 10.2432 78.6654 10.0367 78.6689C10.0229 77.2928 10.0391 75.9167 10.0264 74.5395Z" fill="#062F81"/>
<path d="M14.5784 75.448C15.2946 74.4252 16.9714 74.3328 17.7684 75.3129C17.6127 75.4388 17.4558 75.5623 17.2978 75.6858C16.8907 75.2875 16.2795 75.1409 15.7409 75.3407C14.9693 75.62 14.6741 76.6325 15.0143 77.3436C15.3222 78.1563 16.4455 78.4276 17.126 77.9162C17.3428 77.7477 17.3947 77.4614 17.4339 77.2097C17.1191 77.2097 16.8054 77.2074 16.4917 77.2016C16.4917 77.0077 16.4928 76.8137 16.494 76.6232C17.021 76.6244 17.5492 76.614 18.0774 76.6359C18.0982 77.2074 18.0509 77.8481 17.6253 78.2787C17.0672 78.8409 16.1653 78.864 15.4514 78.6423C14.1989 78.2071 13.8126 76.4708 14.5784 75.448Z" fill="#062F81"/>
<path d="M20.2122 74.558C21.1924 75.4503 22.1335 76.3854 23.0711 77.3228C23.0781 76.4547 23.0746 75.5866 23.0792 74.7184C23.288 74.7161 23.4967 74.7138 23.7066 74.7127C23.7135 76.0772 23.717 77.4417 23.7031 78.8074C23.3179 78.5373 23.0135 78.176 22.6779 77.8516C22.0666 77.2409 21.4323 76.6533 20.8442 76.0206C20.8488 76.9038 20.8476 77.7881 20.8465 78.6724C20.6389 78.6654 20.4301 78.6631 20.2237 78.6424C20.1937 77.2813 20.2225 75.919 20.2122 74.558Z" fill="#062F81"/>
<path d="M34.8254 74.5476C35.7954 75.4838 36.7895 76.4004 37.7052 77.391C37.6925 76.4997 37.7006 75.6085 37.6994 74.7184C37.8989 74.715 38.0985 74.7127 38.2991 74.7127C38.3026 76.0841 38.3026 77.4556 38.2968 78.8282C37.3442 77.8804 36.3489 76.9765 35.4309 75.9952C35.4736 76.8818 35.4344 77.7708 35.4574 78.6585C35.2464 78.6608 35.0365 78.6643 34.8277 78.6689C34.8266 77.2951 34.8266 75.9214 34.8254 74.5476Z" fill="#062F81"/>
<path d="M39.5782 75.1998C40.3763 74.4067 41.849 74.416 42.5583 75.3291C42.398 75.448 42.2365 75.5658 42.0762 75.6847C41.4869 75.0232 40.2586 75.1352 39.8596 75.9444C39.4167 76.7098 39.7754 77.8562 40.6565 78.1055C41.3024 78.341 42.2515 78.004 42.2296 77.2085C41.9147 77.2074 41.5999 77.2097 41.2862 77.2085C41.2851 77.0134 41.2862 76.8172 41.2874 76.6256C41.8144 76.6244 42.3403 76.6198 42.8674 76.629C42.9135 77.3032 42.7912 78.0986 42.1696 78.4877C41.2977 78.9933 40.0026 78.849 39.3925 77.9982C38.7893 77.182 38.8482 75.9202 39.5782 75.1998Z" fill="#062F81"/>
<path d="M49.4329 75.1283C50.1122 74.5037 51.2182 74.4483 51.9713 74.9713C52.1938 75.1375 52.0174 75.4515 52.0324 75.6847C51.5007 75.298 50.7799 75.0925 50.1618 75.4019C49.4144 75.7897 49.2426 76.8449 49.6578 77.5341C49.878 77.9128 50.3128 78.1206 50.7395 78.1483C51.2112 78.1575 51.6391 77.9312 52.022 77.6784C52.0232 77.9255 52.0266 78.1737 52.0301 78.423C51.2851 78.9021 50.2459 78.8963 49.5309 78.3607C48.5333 77.6195 48.4791 75.9283 49.4329 75.1283Z" fill="#062F81"/>
<path d="M54.3529 74.6503C55.5442 74.4148 56.807 75.4365 56.7551 76.6683C56.8313 77.7985 55.7772 78.8363 54.6539 78.7613C53.7289 78.7763 52.8386 78.0836 52.6644 77.167C52.3577 76.0437 53.2042 74.8004 54.3529 74.6503ZM54.2421 75.3349C53.8396 75.4688 53.5121 75.8105 53.3864 76.2146C53.1131 76.943 53.5352 77.8885 54.3113 78.0825C55.212 78.3999 56.2246 77.4833 56.0563 76.5528C56.0251 75.6835 55.0667 75.0047 54.2421 75.3349Z" fill="#062F81"/>
<path d="M57.4309 74.543C58.3927 75.4885 59.4076 76.3855 60.313 77.3875C60.2899 76.4974 60.3095 75.6074 60.3049 74.7184C60.509 74.715 60.7132 74.7138 60.9184 74.7138C60.9138 76.0865 60.9311 77.4591 60.9092 78.8317C59.967 77.8747 58.9498 76.9869 58.0548 75.986C58.0825 76.8761 58.0537 77.7662 58.0618 78.6574C57.8519 78.6539 57.6431 78.6539 57.4355 78.6551C57.4355 77.2836 57.4401 75.9133 57.4309 74.543Z" fill="#062F81"/>
<path d="M67.07 78.4888C67.6801 77.1762 68.2614 75.8509 68.8934 74.5487C69.5092 75.9236 70.1539 77.287 70.7709 78.6631C70.538 78.662 70.3062 78.6631 70.0743 78.6677C69.9221 78.3364 69.7745 78.0028 69.6384 77.6657C69.139 77.6738 68.6397 77.6761 68.1414 77.6715C67.9938 77.9993 67.8439 78.3272 67.702 78.6597C67.2846 78.6654 66.8671 78.662 66.4496 78.662C66.0171 78.0617 65.5673 77.4741 65.1418 76.8703C65.1625 77.4671 65.1337 78.0651 65.1383 78.6631C64.9261 78.6608 64.7127 78.6597 64.5028 78.6608C64.4925 77.3459 64.504 76.0322 64.4971 74.7184C65.1025 74.7519 65.7818 74.5706 66.3273 74.9112C67.0527 75.4215 66.829 76.7479 65.9202 76.913C66.2858 77.451 66.6987 77.9543 67.07 78.4888ZM65.1591 75.2725C65.1567 75.6454 65.1556 76.0195 65.1614 76.3947C65.4266 76.3681 65.6919 76.3335 65.9571 76.2919C66.0932 76.0137 66.0967 75.6997 65.9583 75.4226C65.6965 75.3453 65.4289 75.2945 65.1591 75.2725ZM68.8818 75.8648C68.7619 76.2908 68.5659 76.6902 68.3906 77.0954C68.7227 77.0885 69.056 77.0896 69.3893 77.0908C69.2198 76.6821 69.026 76.2827 68.8818 75.8648Z" fill="#062F81"/>
<path d="M72.291 74.7034C72.9138 74.4876 73.5804 74.6757 74.1317 74.9955C74.1455 75.2275 74.1547 75.4596 74.1651 75.6951C73.5977 75.3234 72.8412 75.0567 72.2069 75.4261C71.2404 75.9479 71.3038 77.5838 72.3095 78.0305C72.9323 78.3064 73.6092 78.0282 74.1271 77.6611C74.1282 77.9058 74.1282 78.1529 74.1328 78.3999C73.1352 79.1192 71.5103 78.7751 71.0155 77.6092C70.4781 76.5147 71.0824 75.0047 72.291 74.7034Z" fill="#062F81"/>
<path d="M79.0285 74.6434C80.0376 74.4783 81.1044 75.1767 81.3316 76.1811C81.6615 77.2651 80.8945 78.5015 79.792 78.7174C78.7252 78.9887 77.55 78.2822 77.2974 77.2109C76.9757 76.053 77.8349 74.7727 79.0285 74.6434ZM78.814 75.3534C78.3285 75.5462 77.9698 76.0299 77.9502 76.5563C77.8418 77.3159 78.4496 78.0894 79.2188 78.1425C80.2083 78.2464 81.0041 77.0966 80.62 76.1961C80.3882 75.4688 79.521 75.0497 78.814 75.3534Z" fill="#062F81"/>
<path d="M90.8612 74.8327C91.4655 74.4229 92.4101 74.6065 92.7503 75.2783C92.5773 75.3695 92.4032 75.4607 92.2302 75.5508C91.9926 75.2322 91.6005 75.1583 91.2406 75.2887C91.183 75.4573 91.0469 75.6339 91.1253 75.8221C91.5197 76.4293 92.4458 76.4351 92.7595 77.1197C93.0801 77.8585 92.5035 78.7901 91.6812 78.7601C91.0504 78.8686 90.4322 78.4831 90.2684 77.8643C90.4449 77.7812 90.6248 77.6992 90.8036 77.6195C90.9327 77.8089 91.0458 78.0501 91.2902 78.1136C91.717 78.3111 92.3132 77.9035 92.1264 77.4164C91.7619 76.9223 91.0827 76.8495 90.6698 76.4097C90.2361 75.9768 90.3365 75.1502 90.8612 74.8327Z" fill="#062F81"/>
<path d="M7.16286 74.7161C7.89058 74.7138 8.6183 74.7104 9.34487 74.7092C9.34487 74.902 9.34487 75.0971 9.34487 75.2922C8.84319 75.2933 8.34152 75.2945 7.83984 75.2887C7.84099 75.605 7.84099 75.9214 7.84445 76.24C8.34728 76.2169 8.85127 76.2227 9.3541 76.2365C9.34833 76.4362 9.34257 76.636 9.33795 76.8391C8.83858 76.8334 8.33921 76.8357 7.83984 76.838C7.83984 77.2432 7.84099 77.6495 7.81908 78.0548C8.32768 78.0548 8.83743 78.0467 9.34718 78.0651C9.34487 78.2637 9.34487 78.4623 9.34603 78.6643C8.6183 78.6562 7.89174 78.6608 7.16517 78.6678C7.15248 77.3506 7.16055 76.0333 7.16286 74.7161Z" fill="#062F81"/>
<path d="M18.691 74.7069C18.9171 74.7103 19.1443 74.7138 19.3715 74.7196C19.3645 76.031 19.3911 77.3436 19.3553 78.6562C19.1316 78.6527 18.909 78.6527 18.6864 78.6551C18.6933 77.339 18.6852 76.0229 18.691 74.7069Z" fill="#062F81"/>
<path d="M24.5532 74.7184C25.2901 74.7196 26.0282 74.6919 26.764 74.7253C26.7502 74.917 26.7364 75.1098 26.7191 75.3026C26.2197 75.2876 25.7203 75.2899 25.2198 75.2991C25.2232 75.6062 25.2198 75.9133 25.2186 76.2226C25.7238 76.2226 26.2301 76.2226 26.7352 76.2307C26.7375 76.4304 26.7375 76.6302 26.7352 76.8333C26.2278 76.838 25.7203 76.8357 25.2129 76.8345C25.2209 77.2409 25.2232 77.6472 25.2198 78.0536C25.7238 78.0536 26.2278 78.0478 26.7317 78.0709C26.7364 78.2637 26.7387 78.4576 26.7398 78.6539C26.0109 78.6631 25.2821 78.6597 24.5532 78.6597C24.5474 77.3459 24.5578 76.0322 24.5532 74.7184Z" fill="#062F81"/>
<path d="M27.4282 74.7127C28.1525 74.7207 28.8768 74.6976 29.6022 74.715C29.6045 74.9089 29.6079 75.104 29.6103 75.3003C29.1017 75.2887 28.5931 75.2945 28.0845 75.291C28.0891 75.6004 28.0868 75.9098 28.0775 76.2204C28.5873 76.2273 29.097 76.2192 29.6079 76.2365C29.6091 76.4339 29.6091 76.6336 29.6091 76.8345C29.0993 76.8357 28.5907 76.8334 28.0822 76.8414C28.0902 77.2466 28.0891 77.6519 28.0798 78.0571C28.5884 78.0524 29.097 78.0478 29.6068 78.0686C29.6091 78.2649 29.6091 78.4623 29.6103 78.6608C28.8825 78.6608 28.1537 78.6562 27.4259 78.6666C27.4282 77.3482 27.4202 76.0299 27.4282 74.7127Z" fill="#062F81"/>
<path d="M30.2827 74.7184C30.804 74.7334 31.3426 74.6515 31.8523 74.7877C32.5905 75.0255 32.73 76.0703 32.2525 76.614C32.0807 76.7456 31.8777 76.8276 31.6828 76.9211C32.1061 77.4995 32.5466 78.0663 32.9607 78.6528C32.7173 78.6562 32.4763 78.6631 32.2341 78.6758C31.7866 78.0721 31.3438 77.4672 30.9067 76.8565C30.8997 77.4614 30.9101 78.0663 30.894 78.6724C30.6875 78.6655 30.4811 78.662 30.2747 78.6585C30.2839 77.3448 30.2735 76.031 30.2827 74.7184ZM30.9378 75.291C30.9424 75.657 30.9413 76.0241 30.947 76.3912C31.1834 76.3658 31.4279 76.3727 31.6551 76.2908C31.9042 76.1315 31.8466 75.7921 31.7878 75.5508C31.5975 75.2806 31.2273 75.3141 30.9378 75.291Z" fill="#062F81"/>
<path d="M33.3181 74.7103C33.5384 74.7126 33.7587 74.7173 33.9789 74.7219C33.9812 76.0356 33.9743 77.3494 33.9847 78.6631C33.7633 78.662 33.543 78.6631 33.3227 78.6643C33.3123 77.3459 33.3204 76.0287 33.3181 74.7103Z" fill="#062F81"/>
<path d="M61.3636 74.715C62.2644 74.7011 63.1662 74.7173 64.0669 74.7138C64.0739 74.8997 64.0808 75.0855 64.0877 75.2737C63.7429 75.2899 63.398 75.2945 63.0532 75.3003C63.0624 76.4212 63.0497 77.5422 63.0578 78.6631C62.8341 78.6608 62.6115 78.6608 62.3889 78.662C62.3924 77.5399 62.3785 76.4178 62.3889 75.2957C62.0429 75.2945 61.6981 75.2922 61.3533 75.2795C61.3544 75.0902 61.359 74.902 61.3636 74.715Z" fill="#062F81"/>
<path d="M74.4696 74.708C75.3634 74.7277 76.2572 74.7011 77.1509 74.7138C77.1486 74.9043 77.1486 75.0971 77.1498 75.291C76.8119 75.2922 76.4751 75.2922 76.1384 75.2933C76.1395 76.4189 76.1464 77.5433 76.1372 78.6689C75.9169 78.6643 75.6978 78.662 75.4798 78.6597C75.4718 77.5364 75.4856 76.4131 75.4752 75.2899C75.1373 75.291 74.7994 75.2957 74.4626 75.3037C74.4626 75.104 74.465 74.9054 74.4696 74.708Z" fill="#062F81"/>
<path d="M82.0858 74.7092C82.6267 74.7392 83.1895 74.6411 83.7154 74.8062C84.3301 75.0601 84.4512 75.8844 84.1813 76.4305C84.051 76.7179 83.7327 76.808 83.4663 76.9199C83.923 77.4856 84.3382 78.0848 84.7683 78.6724C84.51 78.6574 84.2447 78.6885 83.9933 78.6308C83.5505 78.0444 83.1318 77.4394 82.6855 76.8553C82.6832 77.4556 82.6913 78.0559 82.6763 78.6574C82.4779 78.6574 82.2796 78.6574 82.0835 78.6597C82.087 77.3425 82.0835 76.0253 82.0858 74.7092ZM82.7478 75.2714C82.7443 75.6466 82.742 76.0218 82.7524 76.3981C83.0326 76.3404 83.3936 76.412 83.5931 76.158C83.6335 75.9594 83.6427 75.7505 83.5874 75.5566C83.3936 75.2991 83.0315 75.321 82.7478 75.2714Z" fill="#062F81"/>
<path d="M93.455 74.7161C93.6695 74.715 93.8863 74.7138 94.1043 74.7138C94.1077 75.4457 94.1043 76.1776 94.1008 76.9096C94.0985 77.2282 94.1331 77.5687 94.3165 77.8412C94.7432 78.3838 95.8596 78.2279 95.953 77.4822C96.0418 76.5644 95.9668 75.6397 95.9899 74.7207C96.2102 74.715 96.4305 74.7115 96.653 74.708C96.6507 75.5946 96.6542 76.4813 96.6438 77.369C96.645 77.8112 96.4639 78.2914 96.0695 78.5281C95.5989 78.8352 94.9992 78.789 94.4699 78.7105C93.8679 78.5962 93.4942 78.0074 93.4711 77.4233C93.4296 76.5217 93.4631 75.6177 93.455 74.7161Z" fill="#062F81"/>
<path d="M97.4741 74.7254C98.0207 74.7277 98.5766 74.6642 99.1187 74.7681C99.9709 74.9851 100.074 76.33 99.3505 76.7629C98.9722 76.9696 98.5293 76.9049 98.1176 76.9119C98.1176 77.496 98.1234 78.079 98.1188 78.6643C97.9031 78.6597 97.6886 78.6585 97.4752 78.6574C97.4695 77.3459 97.4787 76.0357 97.4741 74.7254ZM98.1418 75.2726C98.1361 75.6304 98.1384 75.9895 98.1407 76.3497C98.4417 76.3393 98.7485 76.3254 99.0368 76.225C99.0771 76.0968 99.1175 75.9698 99.1613 75.844C99.114 75.7089 99.0691 75.575 99.0252 75.4434C98.7404 75.3407 98.4417 75.2853 98.1418 75.2726Z" fill="#062F81"/>
<path d="M100.341 74.7196C100.887 74.7277 101.444 74.6653 101.982 74.7716C102.828 74.9863 102.928 76.2943 102.244 76.7526C101.859 76.9569 101.406 76.8957 100.987 76.9096C100.993 77.4914 100.984 78.0721 100.987 78.6551C100.77 78.6585 100.555 78.6597 100.341 78.662C100.342 77.3471 100.34 76.0334 100.341 74.7196ZM100.997 75.2807C101.019 75.6385 101.027 75.9987 101.029 76.3589C101.34 76.3508 101.656 76.3208 101.951 76.2088C101.978 75.9606 102.048 75.6824 101.885 75.4654C101.618 75.3026 101.3 75.2876 100.997 75.2807Z" fill="#062F81"/>
<path d="M103.217 74.7161C103.439 74.7138 103.66 74.715 103.884 74.7184C103.894 75.8301 103.882 76.9419 103.891 78.0536C104.351 78.0536 104.811 78.0547 105.273 78.0478C105.277 78.251 105.28 78.4565 105.283 78.6631C104.594 78.655 103.907 78.6643 103.22 78.6654C103.214 77.3482 103.214 76.0322 103.217 74.7161Z" fill="#062F81"/>
<path d="M105.758 74.7173C105.98 74.715 106.203 74.715 106.428 74.7184C106.427 76.0333 106.434 77.3482 106.426 78.6631C106.202 78.662 105.978 78.6631 105.757 78.6666C105.75 77.3494 105.754 76.0333 105.758 74.7173Z" fill="#062F81"/>
<path d="M107.278 74.715C108.008 74.715 108.738 74.7115 109.469 74.7138C109.467 74.9054 109.465 75.0982 109.463 75.2922C108.955 75.291 108.449 75.2979 107.943 75.2922C107.943 75.6062 107.943 75.9213 107.944 76.2377C108.449 76.2227 108.955 76.2238 109.461 76.2273C109.463 76.4293 109.463 76.6313 109.464 76.8357C108.956 76.838 108.45 76.8334 107.944 76.8391C107.943 77.2432 107.944 77.6495 107.941 78.0547C108.445 78.0455 108.95 78.0559 109.457 78.0547C109.461 78.2545 109.466 78.4565 109.473 78.6608C108.738 78.6585 108.004 78.6631 107.27 78.6539C107.274 77.3413 107.276 76.0287 107.278 74.715Z" fill="#062F81"/>
<path d="M110.149 74.7161C110.74 74.7323 111.373 74.6145 111.93 74.8685C112.451 75.2183 112.539 76.0264 112.188 76.5274C112.038 76.7433 111.774 76.8114 111.548 76.9153C111.984 77.4949 112.418 78.0744 112.843 78.6631C112.588 78.6597 112.335 78.6608 112.084 78.6631C111.662 78.0617 111.221 77.4729 110.781 76.8865C110.791 77.4764 110.781 78.0663 110.792 78.6562C110.574 78.6562 110.359 78.6585 110.144 78.6631C110.144 77.3471 110.138 76.0322 110.149 74.7161ZM110.816 75.2645C110.815 75.6397 110.813 76.0149 110.827 76.3912C111.075 76.3589 111.339 76.3681 111.573 76.2677C111.79 76.0253 111.709 75.7113 111.61 75.44C111.352 75.3522 111.085 75.2933 110.816 75.2645Z" fill="#062F81"/>
<path d="M45.0597 77.1058C45.536 77.1162 46.0123 77.115 46.4886 77.1081C46.4863 77.2998 46.4851 77.4925 46.4851 77.6865C46.0111 77.6934 45.5383 77.6934 45.0655 77.6865C45.062 77.4914 45.0597 77.2974 45.0597 77.1058Z" fill="#062F81"/>
<path d="M86.661 77.6865C86.6587 77.4925 86.6587 77.3009 86.6598 77.1104C87.135 77.1127 87.6124 77.1104 88.0899 77.1046C88.0968 77.2963 88.1037 77.4902 88.1118 77.6842C87.6274 77.6969 87.1442 77.6853 86.661 77.6865Z" fill="#062F81"/>
</g>
<defs>
<clipPath id="clip0_3_509">
<rect width="119" height="79" fill="white"/>
</clipPath>
</defs>
</svg>
